<?xml version="1.0" encoding="iso-8859-1"?>
<!-- Uploaded to: SVG Repo, www.svgrepo.com, Generator: SVG Repo Mixer Tools -->
<svg fill="#000000" version="1.1" id="Capa_1" xmlns="http://www.w3.org/2000/svg" xmlns:xlink="http://www.w3.org/1999/xlink" 
	 viewBox="0 0 60 60" xml:space="preserve">
<g>
	<g>
		<path d="M59,0H1C0.4,0,0,0.4,0,1v58c0,0.6,0.4,1,1,1h58c0.6,0,1-0.4,1-1V1C60,0.4,59.6,0,59,0z M58,2v6H2V2H58z M2,58V10h56v48H2z
			"/>
		<rect x="4" y="4" width="4" height="2"/>
		<rect x="10" y="4" width="4" height="2"/>
		<rect x="54" y="4" width="2" height="2"/>
		<rect x="50" y="4" width="2" height="2"/>
		<path d="M54,13H42c-0.6,0-1,0.4-1,1v12c0,0.6,0.4,1,1,1h12c0.6,0,1-0.4,1-1V14C55,13.4,54.6,13,54,13z M53,25H43V15h10V25z"/>
		<path d="M54,36H42c-0.6,0-1,0.4-1,1v12c0,0.6,0.4,1,1,1h12c0.6,0,1-0.4,1-1V37C55,36.4,54.6,36,54,36z M53,48H43V38h10V48z"/>
		<path d="M36,36H24c-0.6,0-1,0.4-1,1v12c0,0.6,0.4,1,1,1h12c0.6,0,1-0.4,1-1V37C37,36.4,36.6,36,36,36z M35,48H25V38h10V48z"/>
		<path d="M36,13H24c-0.6,0-1,0.4-1,1v12c0,0.6,0.4,1,1,1h12c0.6,0,1-0.4,1-1V14C37,13.4,36.6,13,36,13z M35,25H25V15h10V25z"/>
		<rect x="23" y="30" width="4" height="2"/>
		<rect x="29" y="30" width="8" height="2"/>
		<rect x="41" y="30" width="4" height="2"/>
		<rect x="47" y="30" width="8" height="2"/>
		<rect x="41" y="53" width="4" height="2"/>
		<rect x="47" y="53" width="8" height="2"/>
		<rect x="23" y="53" width="4" height="2"/>
		<rect x="29" y="53" width="8" height="2"/>
		<rect x="5" y="13" width="6" height="2"/>
		<rect x="5" y="17" width="14" height="2"/>
		<rect x="5" y="40" width="6" height="2"/>
		<rect x="5" y="44" width="14" height="2"/>
		<rect x="5" y="22" width="2" height="2"/>
		<rect x="9" y="22" width="2" height="2"/>
		<rect x="13" y="22" width="2" height="2"/>
		<rect x="17" y="22" width="2" height="2"/>
		<rect x="5" y="26" width="2" height="2"/>
		<rect x="9" y="26" width="2" height="2"/>
		<rect x="13" y="26" width="2" height="2"/>
		<rect x="17" y="26" width="2" height="2"/>
		<rect x="5" y="30" width="2" height="2"/>
		<rect x="9" y="30" width="2" height="2"/>
		<rect x="13" y="30" width="2" height="2"/>
		<rect x="17" y="30" width="2" height="2"/>
		<rect x="5" y="34" width="2" height="2"/>
		<rect x="9" y="34" width="2" height="2"/>
		<rect x="13" y="34" width="2" height="2"/>
		<rect x="17" y="34" width="2" height="2"/>
		<rect x="5" y="49" width="2" height="2"/>
		<rect x="9" y="49" width="2" height="2"/>
		<rect x="13" y="49" width="2" height="2"/>
		<rect x="17" y="49" width="2" height="2"/>
		<rect x="5" y="53" width="2" height="2"/>
		<rect x="9" y="53" width="2" height="2"/>
		<rect x="13" y="53" width="2" height="2"/>
		<rect x="17" y="53" width="2" height="2"/>
	</g>
</g>
</svg>